<?xml version="1.0" encoding="UTF-8"?><svg xmlns="http://www.w3.org/2000/svg" viewBox="0 0 585.93 183.23"><defs><style>.d{fill:#e6e6e6;}.e{fill:#2e3192;}.f{fill:#999;}</style></defs><g id="a"/><g id="b"><g id="c"><g><g><path class="d" d="M123.49,111.6c-6.6-3.5-11.75-8.37-15.45-14.62-3.7-6.25-5.55-13.32-5.55-21.22s1.85-14.95,5.55-21.15c3.7-6.2,8.82-11.05,15.38-14.55,6.55-3.5,14.02-5.25,22.42-5.25,7.9,0,14.82,1.6,20.78,4.8,5.95,3.2,10.42,7.8,13.42,13.8l-14.4,8.4c-2.3-3.7-5.18-6.47-8.62-8.33-3.45-1.85-7.23-2.77-11.33-2.77-7,0-12.8,2.28-17.4,6.83-4.6,4.55-6.9,10.63-6.9,18.23s2.27,13.68,6.82,18.22c4.55,4.55,10.37,6.83,17.48,6.83,4.1,0,7.88-.92,11.33-2.77,3.45-1.85,6.32-4.62,8.62-8.33l14.4,8.4c-3.1,6-7.63,10.63-13.58,13.88-5.95,3.25-12.82,4.88-20.62,4.88-8.3,0-15.75-1.75-22.35-5.25Z"/><path class="d" d="M276.19,35.7l-34.35,80.1h-19.35l-34.35-80.1h19.5l24.9,59.4,25.65-59.4h18Z"/><path class="d" d="M294.79,19.27c-2.3-2.15-3.45-4.82-3.45-8.02s1.15-5.87,3.45-8.03c2.3-2.15,5.15-3.22,8.55-3.22s6.25,1.03,8.55,3.07c2.3,2.05,3.45,4.63,3.45,7.73,0,3.3-1.12,6.08-3.38,8.33s-5.13,3.38-8.62,3.38-6.25-1.07-8.55-3.23Zm-.9,16.42h18.75V115.8h-18.75V35.7Z"/><path class="d" d="M391.39,111.45c-2.2,1.8-4.88,3.15-8.03,4.05-3.15,.9-6.48,1.35-9.97,1.35-8.8,0-15.6-2.3-20.4-6.9-4.8-4.6-7.2-11.3-7.2-20.1V51.3h-13.2v-15h13.2V18h18.75v18.3h21.45v15h-21.45v38.1c0,3.9,.95,6.88,2.85,8.92,1.9,2.05,4.65,3.08,8.25,3.08,4.2,0,7.7-1.1,10.5-3.3l5.25,13.35Z"/><path class="d" d="M470.51,43.27c6.25,5.65,9.38,14.17,9.38,25.57v46.95h-17.7v-9.75c-2.3,3.5-5.58,6.18-9.83,8.02-4.25,1.85-9.38,2.77-15.38,2.77s-11.25-1.03-15.75-3.07-7.98-4.9-10.42-8.55c-2.45-3.65-3.68-7.77-3.68-12.38,0-7.2,2.67-12.97,8.03-17.32,5.35-4.35,13.77-6.52,25.28-6.52h20.7v-1.2c0-5.6-1.68-9.9-5.02-12.9-3.35-3-8.33-4.5-14.92-4.5-4.5,0-8.93,.7-13.28,2.1-4.35,1.4-8.03,3.35-11.03,5.85l-7.35-13.65c4.2-3.2,9.25-5.65,15.15-7.35,5.9-1.7,12.15-2.55,18.75-2.55,11.8,0,20.82,2.83,27.07,8.48Zm-17.1,56.7c3.65-2.15,6.22-5.22,7.72-9.22v-9.3h-19.35c-10.8,0-16.2,3.55-16.2,10.65,0,3.4,1.35,6.1,4.05,8.1,2.7,2,6.45,3,11.25,3s8.87-1.07,12.53-3.23Z"/><path class="d" d="M585.63,81.75h-62.85c1.1,5.9,3.97,10.57,8.62,14.02,4.65,3.45,10.42,5.17,17.33,5.17,8.8,0,16.05-2.9,21.75-8.7l10.05,11.55c-3.6,4.3-8.15,7.55-13.65,9.75-5.5,2.2-11.7,3.3-18.6,3.3-8.8,0-16.55-1.75-23.25-5.25-6.7-3.5-11.88-8.37-15.53-14.62-3.65-6.25-5.47-13.32-5.47-21.22s1.77-14.82,5.33-21.08c3.55-6.25,8.47-11.12,14.77-14.62,6.3-3.5,13.4-5.25,21.3-5.25s14.78,1.73,20.93,5.17c6.15,3.45,10.95,8.3,14.4,14.55,3.45,6.25,5.17,13.48,5.17,21.67,0,1.3-.1,3.15-.3,5.55Zm-55.42-26.62c-4.15,3.55-6.67,8.28-7.58,14.17h45.45c-.8-5.8-3.25-10.5-7.35-14.1-4.1-3.6-9.2-5.4-15.3-5.4s-11.08,1.78-15.22,5.33Z"/></g><polygon class="e" points="82.55 36.98 0 83.93 44.45 84.14 63.44 115.8 82.55 36.98 82.55 36.98"/></g><g><path class="f" d="M281.29,170.38v-34.85h11.15c3.3,0,5.89,.77,7.78,2.3,1.88,1.53,2.83,3.67,2.83,6.4,0,1.73-.38,3.25-1.15,4.55-.77,1.3-1.85,2.28-3.25,2.95,2.03,.57,3.58,1.6,4.62,3.1s1.58,3.4,1.58,5.7c0,3.13-.97,5.56-2.92,7.27-1.95,1.72-4.71,2.58-8.28,2.58h-12.35Zm4.4-20h7.45c1.67,0,3.01-.49,4.03-1.48,1.02-.98,1.52-2.32,1.52-4.02s-.55-2.97-1.65-3.9c-1.1-.93-2.63-1.4-4.6-1.4h-6.75v10.8Zm0,15.95h7.65c4.77,0,7.15-2,7.15-6,0-1.9-.54-3.38-1.62-4.43-1.08-1.05-2.61-1.57-4.58-1.57h-8.6v12Z"/><path class="f" d="M325.69,170.38v-13.45l-12.3-21.4h5l9.35,17,9.55-17h5l-12.2,21.4v13.45h-4.4Z"/></g><g><path class="d" d="M368.89,135.84v28.09h18.42v6.45h-25.33v-34.54h6.91Z"/><path class="d" d="M405.98,135.84v20.03c0,2.61,.77,4.53,2.3,5.76,1.53,1.23,3.45,1.84,5.76,1.84s4.22-.61,5.76-1.84c1.53-1.23,2.3-3.15,2.3-5.76v-20.03h6.91v21.87c0,3.53-1.42,6.52-4.26,8.98-2.84,2.46-6.41,3.68-10.71,3.68s-7.87-1.23-10.71-3.68c-2.84-2.46-4.26-5.45-4.26-8.98v-21.87h6.91Z"/><path class="d" d="M445.68,165.41c-3.31-3.29-4.96-7.42-4.96-12.38,.02-4.85,1.67-8.93,4.97-12.24,3.3-3.31,7.39-4.96,12.27-4.96s9.16,1.54,12.69,4.6l-4.6,5.04c-2.35-1.84-5.04-2.76-8.08-2.76-3.1,.02-5.6,.98-7.49,2.9-1.9,1.92-2.84,4.37-2.84,7.37,.02,3.21,.97,5.76,2.88,7.64,1.9,1.89,4.41,2.83,7.51,2.83s5.78-.91,8.04-2.74l4.6,5.04c-3.52,3.07-7.74,4.6-12.69,4.6-4.88-.02-8.98-1.67-12.28-4.96Z"/><path class="d" d="M482.35,170.38v-34.51l25.37-.02v6.45h-18.47v7.37h13.84v6.42h-13.84v7.85h18.42v6.45h-25.33Z"/><path class="d" d="M540.14,155.32l8.61,15.06h-7.92l-8.27-14.27h-6.31v14.27h-6.91v-34.54h15.06c8.06,0,12.09,3.32,12.09,9.95,0,4.99-2.12,8.17-6.35,9.53Zm-13.88-5.66h9.67c2.78-.05,4.21-1.31,4.28-3.8-.08-2.27-1.48-3.45-4.21-3.55h-9.74v7.34Z"/><path class="d" d="M560.29,170.38v-34.51l25.37-.02v6.45h-18.47v7.37h13.84v6.42h-13.84v7.85h18.42v6.45h-25.33Z"/></g></g></g></svg>