<?xml version="1.0" encoding="UTF-8"?> <svg xmlns="http://www.w3.org/2000/svg" viewBox="0 0 302.31 125.27"><defs><style>.d{fill:#f2f2f2;}</style></defs><g id="a"></g><g id="b"><g id="c"><g><rect class="d" width="31.36" height="125.27" rx="8.06" ry="8.06"></rect><path class="d" d="M114.51,54.24L62.68,2.41c-1.5-1.5-3.53-2.34-5.64-2.34h-2.19c-4.41,0-7.98,3.57-7.98,7.98V117.29c0,4.41,3.57,7.98,7.98,7.98h15.48c4.41,0,7.98-3.57,7.98-7.98v-39.76c0-7.11,8.59-10.67,13.62-5.64l51.04,51.04c1.5,1.5,3.53,2.34,5.64,2.34h2.97c4.41,0,7.98-3.57,7.98-7.98V8.06c0-4.41-3.57-7.98-7.98-7.98h-15.48c-4.41,0-7.98,3.57-7.98,7.98V48.6c0,7.11-8.59,10.67-13.62,5.64Z"></path><path class="d" d="M258.45,86.05c-5.77,6.23-13.09,9.26-22.38,9.26s-16.76-3.03-22.53-9.26c-5.85-6.32-8.7-13.99-8.7-23.45s2.85-17.13,8.7-23.45c5.77-6.23,13.09-9.26,22.38-9.26s16.76,3.03,22.53,9.26h0c3.12,4.23,9.71,3.19,11.39-1.79l.07-.21c1.61-3.95,3.64-7.72,6.05-11.27l.87-1.12c2.63-3.39,2.17-8.24-1.04-11.08l-.68-.6C264.18,4.39,251.04,0,235.99,0,218.3,0,203.29,6.05,191.36,17.97c-11.92,11.92-17.97,26.94-17.97,44.63s6.04,32.64,17.96,44.58c11.92,11.95,26.94,18.01,44.63,18.01,14.63,0,27.45-4.15,38.19-12.35l1.6-1.39c3.22-2.81,3.69-7.64,1.07-11.01l-.79-1.01c-2.22-3.23-4.1-6.64-5.65-10.21l-.48-1.4c-1.72-5-8.34-6.01-11.48-1.76h0Z"></path><path class="d" d="M284.98,62.61c0,6.78,1.27,12.95,3.79,18.51,1.9,4.2,7.87,4.19,9.76,0,2.51-5.56,3.77-11.72,3.77-18.51s-1.26-12.96-3.78-18.53c-1.9-4.2-7.86-4.2-9.76,0-2.52,5.56-3.78,11.73-3.78,18.53Z"></path></g></g></g></svg> 