<?xml version="1.0" encoding="UTF-8"?><svg xmlns="http://www.w3.org/2000/svg" viewBox="0 0 583 668"><defs><style>.d{fill:#f2f2f2;}</style></defs><g id="a"/><g id="b"><g id="c"><g><path class="d" d="M567.45,95.14c-4.82-4.71-9.78-9.28-14.87-13.69-6.06-5.25-12.31-10.28-18.74-15.09-4.29-3.21-8.65-6.31-13.09-9.31-8.88-6-18.07-11.59-27.54-16.73-2.37-1.29-4.75-2.54-7.15-3.77C449,17.56,407.93,5.3,364.46,1.37c-10.03-.91-20.19-1.37-30.46-1.37-54.76,0-106.45,13.18-152.05,36.54-2.4,1.23-4.78,2.49-7.15,3.77-9.47,5.14-18.65,10.73-27.54,16.73-4.44,3-8.81,6.11-13.09,9.31-6.43,4.81-12.68,9.84-18.74,15.09-12.12,10.5-23.48,21.86-33.98,33.98-5.25,6.06-10.28,12.31-15.09,18.74-3.21,4.29-6.31,8.65-9.31,13.09-6,8.88-11.59,18.07-16.73,27.54-1.29,2.37-2.54,4.75-3.77,7.15C13.18,227.55,0,279.24,0,334c0,51.9,11.84,101.03,32.96,144.85,3.18,6.6,6.59,13.06,10.18,19.41,3.48,6.15,7.15,12.17,10.99,18.06,1.98,3.04,4.01,6.04,6.09,9,.71,1.02,1.42,2.03,2.15,3.04,2.67,3.72,5.41,7.39,8.23,11,.62,.79,1.24,1.57,1.86,2.35,61.19,76.94,155.6,126.28,261.55,126.28,7.21,0,14.36-.23,21.45-.68,83.42-5.29,158.52-41.2,214.19-96.61l-41.89-42.96c-25.18,25.18-54.49,44.95-87.11,58.74-33.74,14.27-69.62,21.51-106.63,21.51s-72.89-7.24-106.63-21.51c-32.62-13.8-61.93-33.56-87.11-58.74-25.18-25.18-44.95-54.49-58.74-87.11-14.27-33.74-21.51-69.62-21.51-106.63s7.24-72.89,21.51-106.63c13.8-32.62,33.56-61.93,58.74-87.11s54.49-44.95,87.11-58.74c33.74-14.27,69.62-21.51,106.63-21.51,6.51,0,12.98,.22,19.4,.67,30.16,2.09,59.42,9.07,87.23,20.84,32.62,13.8,61.93,33.56,87.11,58.74l39.7-45.12Z"/><g><path class="d" d="M344.71,272.66l143.7,.18c-8.24-20.81-20.72-39.92-37.03-56.22-1.41-1.41-2.84-2.77-4.28-4.12l-171.57-.24-13.71,.05v-.07l-91.48-.13v60.19l114.11,.24-.38,183.24,60.19,.07,.45-183.19Z"/><path class="d" d="M334,85c-16.84,0-33.28,1.67-49.18,4.86v99.37l60.08-.22,.11-43.68c29.06,1.7,50.92,9.65,61.36,13.97,22.64,9.38,43.43,23.22,61.28,41.07,35.7,35.7,55.36,83.16,55.36,133.64s-19.66,97.95-55.36,133.64c-17.85,17.85-38.64,31.69-61.28,41.06-10.58,4.38-32.78,12.44-62.27,14.02l.11-43.88-60.38-.07v99.17c16.21,3.32,32.99,5.06,50.18,5.06,137.52,0,249-111.48,249-249s-111.48-249-249-249Z"/></g></g><circle class="d" cx="417.67" cy="342" r="36.67"/><circle class="d" cx="211.46" cy="342" r="36.67"/></g></g></svg>